#!OML:ASF X:\für Bonn\!DataBase\2005_08_11_Bastian_Final\c3d\Bastian.ASF
:FULLY-SPECIFIED
:DEGREES
32
root -2.40546 16.9173 -6.35128 169.861 -20.3639 -175.507
lowerback 4.63354 -5.05836 -5.33586
upperback 6.08709 -7.51879 3.41745
thorax 4.926 -4.3396 6.49341
lowerneck 6.05094 -9.93518 -2.35886
upperneck -13.7236 -13.1723 8.01828
head -4.38963 -7.04165 3.5083
rclavicle 6.92516e-014 -1.90833e-014
rhumerus -215.465 -182.047 99.2514
rradius 113.462
rwrist -138.389
rhand -0.206587 3.63206
rfingers 7.12502
rthumb 25.3925 -24.697
lclavicle 6.92516e-014 -1.90833e-014
lhumerus 4.91459 -28.3896 72.5311
lradius 84.8
lwrist 227.09
lhand -24.3282 12.6868
lfingers 7.12502
lthumb 2.16043 42.6557
rfemur -18.2927 -23.8073 25.3539
rtibia 50.5861
rfoot -21.4402 -22.6945
rtoes 8.30697
lfemur 22.5477 11.1528 -9.9894
ltibia 20.1385
lfoot -22.133 4.28615
ltoes -25.7705
33
root -2.39247 16.8958 -6.25781 169.667 -21.4186 -175.641
lowerback 5.11658 -5.059 -5.62318
upperback 6.08176 -7.5438 3.36217
thorax 4.68625 -4.35863 6.64704
lowerneck 6.60366 -10.2761 -2.56184
upperneck -13.9014 -13.5977 8.39505
head -4.47018 -7.2671 3.70518
rclavicle -2.86001e-014 1.86858e-014
rhumerus -214.299 -182.148 99.7517
rradius 114.785
rwrist -137.691
rhand 0.454961 3.87912
rfingers 7.12502
rthumb 26.0261 -24.3583
lclavicle -2.86001e-014 1.86858e-014
lhumerus 8.40055 -28.3664 70.6795
lradius 85.412
lwrist 227.408
lhand -23.8342 13.1774
lfingers 7.12502
lthumb 2.63751 43.1409
rfemur -18.7948 -23.6906 24.847
rtibia 51.4383
rfoot -21.0183 -22.6989
rtoes 8.01663
lfemur 22.1766 10.534 -10.2711
ltibia 20.3287
lfoot -22.6212 3.74716
ltoes -25.0177
34
root -2.37997 16.8723 -6.1647 169.4 -22.4501 -175.746
lowerback 5.67717 -5.04835 -5.89142
upperback 6.1071 -7.56952 3.33575
thorax 4.43856 -4.38189 6.82792
lowerneck 7.03913 -10.6172 -2.74046
upperneck -14.0255 -14.0316 8.69405
head -4.51949 -7.49183 3.86662
rclavicle 4.30369e-014 -2.24627e-014
rhumerus -212.982 -182.362 100.384
rradius 116.149
rwrist -136.958
rhand 1.0179 4.27008
rfingers 7.12502
rthumb 26.565 -23.8869
lclavicle 4.30369e-014 -2.24627e-014
lhumerus 11.9717 -28.1829 68.8869
lradius 85.9701
lwrist 227.534
lhand -23.2754 13.6121
lfingers 7.12502
lthumb 3.1771 43.5682
rfemur -19.2027 -23.5591 24.3101
rtibia 52.2872
rfoot -20.3474 -22.5197
rtoes 7.45192
lfemur 21.7896 10.1762 -10.3384
ltibia 20.7346
lfoot -23.0145 2.87524
ltoes -24.7569
35
root -2.36868 16.8491 -6.07246 169.144 -23.4527 -175.884
lowerback 6.24469 -5.0239 -6.15168
upperback 6.13524 -7.58071 3.30383
thorax 4.18661 -4.39674 7.00033
lowerneck 7.4576 -10.9553 -2.95201
upperneck -14.1515 -14.4644 9.02134
head -4.55955 -7.7173 4.04029
rclavicle 4.46769e-014 -5.96354e-015
rhumerus -211.586 -182.627 101.117
rradius 117.527
rwrist -136.239
rhand 1.52598 4.6728
rfingers 7.12502
rthumb 27.0512 -23.4097
lclavicle 4.46769e-014 -5.96354e-015
lhumerus 15.5916 -27.9146 67.1304
lradius 86.4426
lwrist 227.39
lhand -22.586 13.9796
lfingers 7.12502
lthumb 3.84294 43.9247
rfemur -19.5806 -23.3639 23.6966
rtibia 53.1331
rfoot -19.459 -22.1529
rtoes 6.73553
lfemur 21.3288 9.9575 -10.374
ltibia 21.3091
lfoot -23.3464 1.90716
ltoes -24.9634
36
root -2.35952 16.8257 -5.98103 168.879 -24.4003 -176.051
lowerback 6.849 -4.99578 -6.42021
upperback 6.17466 -7.59711 3.2848
thorax 3.9314 -4.41634 7.19513
lowerneck 7.78612 -11.2724 -3.19436
upperneck -14.2285 -14.8781 9.31492
head -4.56864 -7.92882 4.19878
rclavicle 4.50247e-014 -5.1684e-015
rhumerus -210.035 -182.958 101.981
rradius 118.812
rwrist -135.563
rhand 2.06722 5.00656
rfingers 7.12502
rthumb 27.5689 -22.9944
lclavicle 4.50247e-014 -5.1684e-015
lhumerus 19.218 -27.4769 65.4158
lradius 86.7371
lwrist 227.308
lhand -21.9078 14.5534
lfingers 7.12502
lthumb 4.49784 44.4856
rfemur -19.9065 -23.1216 23.0112
rtibia 53.9611
rfoot -18.5174 -21.5351
rtoes 6.19437
lfemur 20.8397 9.68604 -10.4984
ltibia 22.0259
lfoot -23.7419 1.0196
ltoes -24.7204
37
root -2.35188 16.8005 -5.89089 168.62 -25.3037 -176.232
lowerback 7.44464 -4.94917 -6.63788
upperback 6.21507 -7.58853 3.25128
thorax 3.66899 -4.41945 7.34623
lowerneck 8.11638 -11.5841 -3.47562
upperneck -14.3139 -15.2867 9.65621
head -4.57126 -8.14047 4.37648
rclavicle -7.15625e-015 -5.1684e-015
rhumerus -208.397 -183.115 102.897
rradius 120.008
rwrist -134.987
rhand 2.56936 5.14116
rfingers 7.12502
rthumb 28.049 -22.7822
lclavicle -7.15625e-015 -5.1684e-015
lhumerus 22.8179 -26.9795 63.7788
lradius 86.9131
lwrist 227.134
lhand -21.1456 15.3963
lfingers 7.12502
lthumb 5.23376 45.3117
rfemur -20.1989 -22.8091 22.2739
rtibia 54.7748
rfoot -17.6137 -20.7196
rtoes 5.7196
lfemur 20.3189 9.43449 -10.6526
ltibia 22.8451
lfoot -24.1564 0.132372
ltoes -24.3699
38
root -2.34414 16.7752 -5.80533 168.34 -26.1794 -176.419
lowerback 8.03207 -4.89963 -6.8706
upperback 6.2628 -7.58075 3.2175
thorax 3.42221 -4.42426 7.50445
lowerneck 8.50265 -11.8761 -3.77005
upperneck -14.4188 -15.6698 10.0123
head -4.58575 -8.34111 4.56445
rclavicle 3.66012e-014 2.46493e-014
rhumerus -206.665 -183.19 103.856
rradius 121.097
rwrist -134.521
rhand 3.1179 5.10126
rfingers 7.12502
rthumb 28.5732 -22.7351
lclavicle 3.66012e-014 2.46493e-014
lhumerus 26.2966 -26.3556 62.2868
lradius 87.0129
lwrist 226.892
lhand -20.2908 16.322
lfingers 7.12502
lthumb 6.05909 46.2153
rfemur -20.412 -22.4574 21.4851
rtibia 55.5551
rfoot -16.7668 -19.6833
rtoes 4.96156
lfemur 19.8259 9.26773 -10.7697
ltibia 23.7233
lfoot -24.5585 -0.809814
ltoes -23.7528
39
root -2.33707 16.7489 -5.7245 168.103 -27.0257 -176.638
lowerback 8.61131 -4.84431 -7.10022
upperback 6.25941 -7.5608 3.18027
thorax 3.12317 -4.41498 7.66026
lowerneck 8.97525 -12.156 -4.09845
upperneck -14.5643 -16.04 10.3979
head -4.61968 -8.53745 4.77405
rclavicle 9.74045e-014 -3.29983e-014
rhumerus -204.937 -183.231 104.88
rradius 122.143
rwrist -134.096
rhand 3.59994 5.08447
rfingers 7.12502
rthumb 29.0337 -22.6735
lclavicle 9.74045e-014 -3.29983e-014
lhumerus 29.5477 -25.6816 61.0292
lradius 87.0668
lwrist 226.655
lhand -19.421 17.2313
lfingers 7.12502
lthumb 6.89874 47.0989
rfemur -20.6119 -22.0601 20.6569
rtibia 56.2967
rfoot -16.0965 -18.5133
rtoes 4.28072
lfemur 19.3342 9.19339 -10.8939
ltibia 24.6222
lfoot -24.9515 -1.71814
ltoes -23.5426
40
root -2.33076 16.7241 -5.64754 167.864 -27.8534 -176.817
lowerback 9.20594 -4.79322 -7.24257
upperback 6.2044 -7.5383 3.13926
thorax 2.74784 -4.39207 7.76915
lowerneck 9.47746 -12.4352 -4.46733
upperneck -14.619 -16.4161 10.7727
head -4.62458 -8.73211 4.98255
rclavicle 6.19214e-014 -1.59028e-014
rhumerus -203.267 -183.24 105.978
rradius 123.146
rwrist -133.746
rhand 4.08126 5.03579
rfingers 7.12502
rthumb 29.4933 -22.642
lclavicle 6.19214e-014 -1.59028e-014
lhumerus 32.5818 -24.9645 60.0597
lradius 87.0169
lwrist 226.36
lhand -18.6645 17.9874
lfingers 7.12502
lthumb 7.62901 47.8298
rfemur -20.7709 -21.6637 19.8548
rtibia 56.9781
rfoot -15.5922 -17.2373
rtoes 3.99226
lfemur 18.8727 9.13089 -10.9953
ltibia 25.4935
lfoot -25.3533 -2.49983
ltoes -23.7654
41
root -2.32484 16.7016 -5.5727 167.666 -28.6519 -177.044
lowerback 9.78531 -4.74026 -7.40445
upperback 6.1403 -7.51408 3.08183
thorax 2.37222 -4.3662 7.87054
lowerneck 10.0109 -12.6978 -4.82966
upperneck -14.7055 -16.7727 11.1589
head -4.64239 -8.92037 5.19743
rclavicle -1.11742e-013 2.34566e-014
rhumerus -201.564 -183.211 107.094
rradius 124.079
rwrist -133.421
rhand 4.55912 5.06329
rfingers 7.12502
rthumb 29.9494 -22.5331
lclavicle -1.11742e-013 2.34566e-014
lhumerus 35.3908 -24.1431 59.4096
lradius 86.9158
lwrist 226.028
lhand -18.1458 18.739
lfingers 7.12502
lthumb 8.12965 48.5626
rfemur -20.9162 -21.2463 18.9971
rtibia 57.5848
rfoot -15.1703 -15.8978
rtoes 4.10119
lfemur 18.424 8.926 -11.2601
ltibia 26.3226
lfoot -25.7274 -3.06573
ltoes -23.8728
